<svg width="153" height="52" viewBox="0 0 153 52" fill="none" xmlns="http://www.w3.org/2000/svg">
<rect x="0.6375" y="1.1375" width="151.725" height="49.725" rx="7.0125" fill="black"/>
<rect x="0.6375" y="1.1375" width="151.725" height="49.725" rx="7.0125" stroke="#A6A6A6" stroke-width="1.275"/>
<path d="M31.4984 26.9728C31.5139 25.7999 31.833 24.6499 32.4261 23.6298C33.0191 22.6097 33.8668 21.7526 34.8903 21.1383C34.2401 20.2317 33.3823 19.4856 32.3851 18.9593C31.3879 18.4329 30.2788 18.1409 29.1457 18.1063C26.7287 17.8586 24.3856 19.5183 23.1539 19.5183C21.8984 19.5183 20.0021 18.1309 17.96 18.1719C16.6392 18.2135 15.352 18.5885 14.2237 19.2603C13.0954 19.9321 12.1646 20.8777 11.522 22.0051C8.73843 26.7104 10.8148 33.6255 13.4813 37.4289C14.8154 39.2913 16.3746 41.3717 18.4148 41.2979C20.4112 41.2171 21.1568 40.055 23.5667 40.055C25.9542 40.055 26.6538 41.2979 28.7353 41.251C30.8776 41.2171 32.2274 39.3803 33.5147 37.5003C34.4732 36.1732 35.2109 34.7066 35.7002 33.1546C34.4556 32.6407 33.3935 31.7804 32.6463 30.6811C31.8991 29.5818 31.4999 28.2921 31.4984 26.9728Z" fill="white"/>
<path d="M27.5669 15.6053C28.735 14.2363 29.3104 12.4767 29.1711 10.7002C27.3866 10.8832 25.7381 11.7159 24.5543 13.0323C23.9755 13.6754 23.5322 14.4236 23.2497 15.2341C22.9673 16.0446 22.8512 16.9015 22.9081 17.7558C23.8007 17.7648 24.6837 17.5759 25.4907 17.2034C26.2977 16.8309 27.0076 16.2845 27.5669 15.6053Z" fill="white"/>
<path d="M49.7739 13.8018H52.2577C54.404 13.8018 55.4481 15.0779 55.4481 17.393C55.4481 19.708 54.3935 21 52.2577 21H49.7739V13.8018ZM50.971 14.809V19.9928H52.1259C53.5497 19.9928 54.2194 19.1332 54.2194 17.4088C54.2194 15.6738 53.5444 14.809 52.1259 14.809H50.971ZM59.2345 15.3311C60.6899 15.3311 61.7077 16.275 61.7077 17.8412V18.5637C61.7077 20.1826 60.6899 21.0949 59.2345 21.0949C57.7579 21.0949 56.7507 20.1932 56.7507 18.5689V17.8465C56.7507 16.3225 57.7737 15.3311 59.2345 15.3311ZM59.2397 16.275C58.4065 16.275 57.9319 16.9711 57.9319 17.9045V18.5268C57.9319 19.4602 58.3749 20.151 59.2397 20.151C60.094 20.151 60.5317 19.4654 60.5317 18.5268V17.9045C60.5317 16.9711 60.0729 16.275 59.2397 16.275ZM70.3034 15.426L68.8374 21H67.6456L66.4802 16.8867H66.4485L65.3042 21H64.1071L62.5778 15.426H63.8382L64.7347 19.6764H64.7874L65.9106 15.426H67.0128L68.1677 19.6764H68.2204L69.1327 15.426H70.3034ZM71.4636 21V15.426H72.6132V16.4279H72.6712C72.8136 15.9902 73.2196 15.3416 74.3481 15.3416C75.4714 15.3416 76.2255 15.9639 76.2255 17.2348V21H75.0548V17.5775C75.0548 16.7285 74.6118 16.3383 73.9526 16.3383C73.0878 16.3383 72.6343 17.0027 72.6343 17.9045V21H71.4636ZM77.9974 21V13.4221H79.1681V21H77.9974ZM83.1864 15.3311C84.6419 15.3311 85.6597 16.275 85.6597 17.8412V18.5637C85.6597 20.1826 84.6419 21.0949 83.1864 21.0949C81.7099 21.0949 80.7026 20.1932 80.7026 18.5689V17.8465C80.7026 16.3225 81.7257 15.3311 83.1864 15.3311ZM83.1917 16.275C82.3585 16.275 81.8839 16.9711 81.8839 17.9045V18.5268C81.8839 19.4602 82.3269 20.151 83.1917 20.151C84.046 20.151 84.4837 19.4654 84.4837 18.5268V17.9045C84.4837 16.9711 84.0249 16.275 83.1917 16.275ZM88.6919 21.0844C87.6108 21.0844 86.8673 20.4199 86.8673 19.3811C86.8673 18.3949 87.5528 17.7305 88.8396 17.7305H90.2476V17.2084C90.2476 16.5703 89.8415 16.2697 89.1981 16.2697C88.5653 16.2697 88.2806 16.5334 88.1909 16.9025H87.0782C87.1468 15.9691 87.8481 15.3416 89.2351 15.3416C90.4269 15.3416 91.413 15.8373 91.413 17.2242V21H90.3003V20.2775H90.2476C89.9997 20.7047 89.5146 21.0844 88.6919 21.0844ZM89.0558 20.1773C89.7202 20.1773 90.2476 19.7238 90.2476 19.1174V18.5162H89.0241C88.3438 18.5162 88.0433 18.859 88.0433 19.323C88.0433 19.9031 88.5284 20.1773 89.0558 20.1773ZM95.02 15.3521C95.8058 15.3521 96.4069 15.7002 96.6231 16.2645H96.6812V13.4221H97.8519V21H96.7128V20.1088H96.6548C96.486 20.673 95.8163 21.0738 95.0042 21.0738C93.7228 21.0738 92.8896 20.1615 92.8896 18.6902V17.7357C92.8896 16.2645 93.7386 15.3521 95.02 15.3521ZM95.347 16.3119C94.5665 16.3119 94.0814 16.892 94.0814 17.9045V18.5162C94.0814 19.534 94.5718 20.1141 95.3733 20.1141C96.1644 20.1141 96.6812 19.5393 96.6812 18.59V17.7463C96.6812 16.8867 96.1169 16.3119 95.347 16.3119ZM104.28 15.3311C105.736 15.3311 106.753 16.275 106.753 17.8412V18.5637C106.753 20.1826 105.736 21.0949 104.28 21.0949C102.804 21.0949 101.796 20.1932 101.796 18.5689V17.8465C101.796 16.3225 102.819 15.3311 104.28 15.3311ZM104.285 16.275C103.452 16.275 102.978 16.9711 102.978 17.9045V18.5268C102.978 19.4602 103.421 20.151 104.285 20.151C105.14 20.151 105.577 19.4654 105.577 18.5268V17.9045C105.577 16.9711 105.119 16.275 104.285 16.275ZM108.262 21V15.426H109.411V16.4279H109.469C109.612 15.9902 110.018 15.3416 111.146 15.3416C112.269 15.3416 113.024 15.9639 113.024 17.2348V21H111.853V17.5775C111.853 16.7285 111.41 16.3383 110.751 16.3383C109.886 16.3383 109.432 17.0027 109.432 17.9045V21H108.262ZM117.553 15.4629V14.0707H118.698V15.4629H119.948V16.3805H118.698V19.3389C118.698 19.9453 118.925 20.1141 119.552 20.1141C119.71 20.1141 119.921 20.1035 120.011 20.093V20.9895C119.916 21.0053 119.526 21.0369 119.262 21.0369C117.907 21.0369 117.538 20.5518 117.538 19.4338V16.3805H116.689V15.4629H117.553ZM121.424 21V13.4221H122.59V16.4279H122.648C122.769 16.0324 123.222 15.3416 124.34 15.3416C125.427 15.3416 126.202 15.9691 126.202 17.24V21H125.036V17.5828C125.036 16.7338 124.567 16.3383 123.903 16.3383C123.064 16.3383 122.59 16.9975 122.59 17.9045V21H121.424ZM130.131 21.0949C128.612 21.0949 127.668 20.1615 127.668 18.59V17.8359C127.668 16.2539 128.701 15.3311 130.062 15.3311C131.459 15.3311 132.446 16.3014 132.446 17.8359V18.4898H128.828V18.7641C128.828 19.5656 129.303 20.1562 130.125 20.1562C130.737 20.1562 131.159 19.8662 131.238 19.5182H132.382C132.314 20.1615 131.633 21.0949 130.131 21.0949ZM128.828 17.7252H131.301V17.6514C131.301 16.8129 130.811 16.2539 130.067 16.2539C129.324 16.2539 128.828 16.8129 128.828 17.6514V17.7252Z" fill="white"/>
<path d="M51.472 39H49.0356L53.9927 24.6035H56.6716L61.6181 39H59.0868L57.8106 35.0133H52.7587L51.472 39ZM55.3427 27.0926H55.2478L53.2966 33.1781H57.2728L55.3427 27.0926ZM68.342 39.1582C66.897 39.1582 65.8002 38.4727 65.2095 37.4496H65.1252V42.702H62.7838V27.852H65.0619V29.4867H65.1463C65.758 28.4215 66.897 27.7043 68.3947 27.7043C70.8943 27.7043 72.6767 29.5922 72.6767 32.925V33.9164C72.6767 37.2281 70.9154 39.1582 68.342 39.1582ZM67.8041 37.2281C69.2912 37.2281 70.3037 36.0363 70.3037 33.7898V33.0094C70.3037 30.8473 69.3545 29.6133 67.7619 29.6133C66.1271 29.6133 65.1041 30.9422 65.1041 32.9988V33.7898C65.1041 35.8992 66.1377 37.2281 67.8041 37.2281ZM80.2444 39.1582C78.7994 39.1582 77.7026 38.4727 77.1119 37.4496H77.0276V42.702H74.6862V27.852H76.9643V29.4867H77.0487C77.6604 28.4215 78.7994 27.7043 80.2971 27.7043C82.7967 27.7043 84.5791 29.5922 84.5791 32.925V33.9164C84.5791 37.2281 82.8178 39.1582 80.2444 39.1582ZM79.7065 37.2281C81.1936 37.2281 82.2061 36.0363 82.2061 33.7898V33.0094C82.2061 30.8473 81.2569 29.6133 79.6643 29.6133C78.0295 29.6133 77.0065 30.9422 77.0065 32.9988V33.7898C77.0065 35.8992 78.0401 37.2281 79.7065 37.2281ZM89.4312 35.0027H91.7726C91.8781 36.2473 92.975 37.3125 95.0105 37.3125C96.8773 37.3125 97.9847 36.4371 97.9847 35.0766C97.9847 33.9797 97.2464 33.3891 95.7066 33.0199L93.3441 32.4293C91.4878 31.9969 89.8214 30.8895 89.8214 28.548C89.8214 25.7953 92.2261 24.2871 95.021 24.2871C97.816 24.2871 100.147 25.7953 100.2 28.4848H97.9003C97.7949 27.2613 96.8562 26.2488 94.9894 26.2488C93.3441 26.2488 92.2261 27.0293 92.2261 28.3687C92.2261 29.3074 92.88 29.9824 94.2195 30.2883L96.5714 30.8684C98.7335 31.3957 100.379 32.4187 100.379 34.8656C100.379 37.6922 98.0902 39.2848 94.8312 39.2848C90.8234 39.2848 89.4839 36.9434 89.4312 35.0027ZM103.232 27.852V25.1414H105.531V27.852H107.704V29.7293H105.531V35.6777C105.531 36.8906 105.985 37.2281 107.24 37.2281C107.44 37.2281 107.63 37.2281 107.767 37.207V39C107.577 39.0316 107.134 39.0738 106.66 39.0738C103.949 39.0738 103.2 38.1035 103.2 35.8676V29.7293H101.661V27.852H103.232ZM114.027 27.6621C117.233 27.6621 118.974 29.9191 118.974 32.9566V33.8531C118.974 36.9961 117.244 39.1898 114.027 39.1898C110.81 39.1898 109.059 36.9961 109.059 33.8531V32.9566C109.059 29.9297 110.821 27.6621 114.027 27.6621ZM114.027 29.5395C112.287 29.5395 111.422 30.9633 111.422 32.9883V33.8426C111.422 35.8359 112.276 37.302 114.027 37.302C115.778 37.302 116.622 35.8465 116.622 33.8426V32.9883C116.622 30.9527 115.767 29.5395 114.027 29.5395ZM120.951 39V27.852H123.293V29.318H123.377C123.662 28.6219 124.495 27.6937 126.045 27.6937C126.351 27.6937 126.615 27.7148 126.836 27.757V29.8242C126.636 29.7715 126.225 29.7398 125.835 29.7398C123.957 29.7398 123.324 30.9 123.324 32.3977V39H120.951ZM132.516 39.1898C129.531 39.1898 127.633 37.2176 127.633 33.9164V32.7879C127.633 29.6766 129.489 27.6621 132.421 27.6621C135.396 27.6621 137.188 29.7504 137.188 32.8934V33.9586H129.943V34.2223C129.943 36.0996 130.955 37.3441 132.548 37.3441C133.74 37.3441 134.552 36.7535 134.837 35.7937H137.062C136.724 37.5973 135.269 39.1898 132.516 39.1898ZM129.943 32.3238H134.9V32.3027C134.9 30.7207 133.919 29.4762 132.432 29.4762C130.924 29.4762 129.943 30.7207 129.943 32.3027V32.3238Z" fill="white"/>
</svg>
