<svg width="227" height="64" viewBox="0 0 227 64" fill="none" xmlns="http://www.w3.org/2000/svg">
<path d="M47.3979 8.33344C47.3979 12.2382 44.2324 15.4037 40.3276 15.4037C36.4228 15.4037 32.4255 12.4924 31.5938 8.33344C32.4255 4.59037 36.4228 1.26318 40.3276 1.26318C44.2324 1.26318 47.3979 4.42865 47.3979 8.33344Z" fill="white"/>
<path d="M15.7896 8.33344C15.7896 12.2382 18.9551 15.4037 22.8599 15.4037C26.7647 15.4037 30.762 12.4924 31.5938 8.33344C30.762 4.59037 26.7647 1.26318 22.8599 1.26318C18.9551 1.26318 15.7896 4.42865 15.7896 8.33344Z" fill="#F53865"/>
<rect x="46.3916" y="8.4209" width="27.7588" height="27.166" rx="13.583" transform="rotate(42.3582 46.3916 8.4209)" fill="white"/>
<rect width="27.7588" height="27.166" rx="13.583" transform="matrix(-0.738947 0.673764 0.673764 0.738947 16.7227 8.4209)" fill="#F53865"/>
<path d="M36.9233 18.8185L56.8516 38.0609L31.5792 63.3684L31.5792 24.2615L36.9233 18.8185Z" fill="white"/>
<path d="M26.191 18.8185L6.26266 38.0609L31.5786 63.3684L31.5786 24.2615L26.191 18.8185Z" fill="#F53865"/>
<path d="M82.6601 39.4852C81.169 39.4852 79.7857 39.2516 78.5102 38.7845C77.2526 38.2995 76.1568 37.6168 75.2226 36.7365C74.3064 35.8563 73.5878 34.8233 73.0668 33.6376C72.5458 32.4339 72.2854 31.1135 72.2854 29.6763C72.2854 28.2391 72.5458 26.9277 73.0668 25.742C73.5878 24.5384 74.3064 23.4964 75.2226 22.6161C76.1568 21.7358 77.2526 21.0622 78.5102 20.5951C79.7857 20.11 81.169 19.8675 82.6601 19.8675C84.4027 19.8675 85.9567 20.1729 87.322 20.7837C88.7053 21.3945 89.855 22.2748 90.7712 23.4245L87.3759 26.4965C86.7651 25.7779 86.0914 25.23 85.3548 24.8528C84.6362 24.4755 83.8278 24.2869 82.9296 24.2869C82.1571 24.2869 81.4475 24.4126 80.8007 24.6641C80.154 24.9156 79.5971 25.2839 79.13 25.769C78.6809 26.236 78.3216 26.8019 78.0521 27.4666C77.8006 28.1313 77.6748 28.8679 77.6748 29.6763C77.6748 30.4848 77.8006 31.2213 78.0521 31.886C78.3216 32.5507 78.6809 33.1256 79.13 33.6106C79.5971 34.0777 80.154 34.437 80.8007 34.6885C81.4475 34.9401 82.1571 35.0658 82.9296 35.0658C83.8278 35.0658 84.6362 34.8772 85.3548 34.4999C86.0914 34.1226 86.7651 33.5747 87.3759 32.8561L90.7712 35.9281C89.855 37.0599 88.7053 37.9402 87.322 38.569C85.9567 39.1798 84.4027 39.4852 82.6601 39.4852ZM111.287 39.1079V20.2448H115.679L126.081 32.8022H124.006V20.2448H129.234V39.1079H124.842L114.44 26.5504H116.515V39.1079H111.287ZM131.65 39.1079V20.2448H136.043L146.444 32.8022H144.369V20.2448H149.597V39.1079H145.205L134.803 26.5504H136.878V39.1079H131.65Z" fill="#F53865"/>
<path d="M105.18 21.802C105.18 23.0621 104.158 24.0836 102.898 24.0836C101.638 24.0836 100.348 23.1441 100.08 21.802C100.348 20.5942 101.638 19.5205 102.898 19.5205C104.158 19.5205 105.18 20.542 105.18 21.802Z" fill="white"/>
<path d="M94.9802 21.802C94.9802 23.0621 96.0017 24.0836 97.2617 24.0836C98.5218 24.0836 99.8117 23.1441 100.08 21.802C99.8117 20.5942 98.5218 19.5205 97.2617 19.5205C96.0017 19.5205 94.9802 20.542 94.9802 21.802Z" fill="#F53865"/>
<rect x="104.854" y="21.8301" width="8.9576" height="8.76628" rx="4.38314" transform="rotate(42.3582 104.854 21.8301)" fill="white"/>
<rect width="8.9576" height="8.76628" rx="4.38314" transform="matrix(-0.738947 0.673764 0.673764 0.738947 95.2812 21.8301)" fill="#F53865"/>
<path d="M101.8 25.1853L108.231 31.3947L100.075 39.5613L100.075 26.9418L101.8 25.1853Z" fill="white"/>
<path d="M98.336 25.1853L91.9052 31.3947L100.075 39.5613L100.075 26.9418L98.336 25.1853Z" fill="#F53865"/>
<path d="M154.37 27.5475H163.128V31.5357H154.37V27.5475ZM154.747 34.985H164.61V39.1079H149.465V20.2448H164.26V24.3677H154.747V34.985ZM178.053 39.4852C176.562 39.4852 175.179 39.2516 173.903 38.7845C172.646 38.2995 171.55 37.6168 170.616 36.7365C169.7 35.8563 168.981 34.8233 168.46 33.6376C167.939 32.4339 167.678 31.1135 167.678 29.6763C167.678 28.2391 167.939 26.9277 168.46 25.742C168.981 24.5384 169.7 23.4964 170.616 22.6161C171.55 21.7358 172.646 21.0622 173.903 20.5951C175.179 20.11 176.562 19.8675 178.053 19.8675C179.796 19.8675 181.35 20.1729 182.715 20.7837C184.098 21.3945 185.248 22.2748 186.164 23.4245L182.769 26.4965C182.158 25.7779 181.485 25.23 180.748 24.8528C180.029 24.4755 179.221 24.2869 178.323 24.2869C177.55 24.2869 176.841 24.4126 176.194 24.6641C175.547 24.9156 174.99 25.2839 174.523 25.769C174.074 26.236 173.715 26.8019 173.445 27.4666C173.194 28.1313 173.068 28.8679 173.068 29.6763C173.068 30.4848 173.194 31.2213 173.445 31.886C173.715 32.5507 174.074 33.1256 174.523 33.6106C174.99 34.0777 175.547 34.437 176.194 34.6885C176.841 34.9401 177.55 35.0658 178.323 35.0658C179.221 35.0658 180.029 34.8772 180.748 34.4999C181.485 34.1226 182.158 33.5747 182.769 32.8561L186.164 35.9281C185.248 37.0599 184.098 37.9402 182.715 38.569C181.35 39.1798 179.796 39.4852 178.053 39.4852ZM193.478 39.1079V24.4755H187.685V20.2448H204.581V24.4755H198.814V39.1079H193.478ZM204.436 39.1079L212.762 20.2448H218.017L226.371 39.1079H220.82L214.298 22.8586H216.4L209.879 39.1079H204.436ZM208.99 35.4431L210.364 31.5088H219.58L220.954 35.4431H208.99Z" fill="white"/>
</svg>
