<svg width="227" height="64" viewBox="0 0 227 64" fill="none" xmlns="http://www.w3.org/2000/svg">
<path d="M47.3979 8.33344C47.3979 12.2382 44.2324 15.4037 40.3276 15.4037C36.4228 15.4037 32.4255 12.4924 31.5938 8.33344C32.4255 4.59037 36.4228 1.26318 40.3276 1.26318C44.2324 1.26318 47.3979 4.42865 47.3979 8.33344Z" fill="#363636"/>
<path d="M15.7896 8.33344C15.7896 12.2382 18.9551 15.4037 22.8599 15.4037C26.7647 15.4037 30.762 12.4924 31.5938 8.33344C30.762 4.59037 26.7647 1.26318 22.8599 1.26318C18.9551 1.26318 15.7896 4.42865 15.7896 8.33344Z" fill="#F53865"/>
<rect x="46.3916" y="8.42108" width="27.7588" height="27.166" rx="13.583" transform="rotate(42.3582 46.3916 8.42108)" fill="#363636"/>
<rect width="27.7588" height="27.166" rx="13.583" transform="matrix(-0.738947 0.673764 0.673764 0.738947 16.7227 8.42108)" fill="#F53865"/>
<path d="M36.9233 18.8185L56.8516 38.0609L31.5792 63.3684L31.5792 24.2615L36.9233 18.8185Z" fill="#363636"/>
<path d="M26.191 18.8185L6.26266 38.0609L31.5786 63.3684L31.5786 24.2615L26.191 18.8185Z" fill="#F53865"/>
<path d="M82.6601 39.4849C81.169 39.4849 79.7857 39.2514 78.5102 38.7843C77.2526 38.2992 76.1568 37.6166 75.2226 36.7363C74.3064 35.856 73.5878 34.823 73.0668 33.6373C72.5458 32.4337 72.2854 31.1133 72.2854 29.6761C72.2854 28.2389 72.5458 26.9275 73.0668 25.7418C73.5878 24.5381 74.3064 23.4962 75.2226 22.6159C76.1568 21.7356 77.2526 21.0619 78.5102 20.5948C79.7857 20.1098 81.169 19.8672 82.6601 19.8672C84.4027 19.8672 85.9567 20.1726 87.322 20.7835C88.7053 21.3943 89.855 22.2745 90.7712 23.4243L87.3759 26.4963C86.7651 25.7777 86.0914 25.2298 85.3548 24.8525C84.6362 24.4752 83.8278 24.2866 82.9296 24.2866C82.1571 24.2866 81.4475 24.4124 80.8007 24.6639C80.154 24.9154 79.5971 25.2837 79.13 25.7687C78.6809 26.2358 78.3216 26.8017 78.0521 27.4664C77.8006 28.1311 77.6748 28.8677 77.6748 29.6761C77.6748 30.4845 77.8006 31.2211 78.0521 31.8858C78.3216 32.5505 78.6809 33.1253 79.13 33.6104C79.5971 34.0775 80.154 34.4368 80.8007 34.6883C81.4475 34.9398 82.1571 35.0656 82.9296 35.0656C83.8278 35.0656 84.6362 34.8769 85.3548 34.4997C86.0914 34.1224 86.7651 33.5745 87.3759 32.8559L90.7712 35.9279C89.855 37.0597 88.7053 37.9399 87.322 38.5687C85.9567 39.1795 84.4027 39.4849 82.6601 39.4849ZM111.287 39.1077V20.2445H115.679L126.081 32.802H124.006V20.2445H129.234V39.1077H124.842L114.44 26.5502H116.515V39.1077H111.287ZM131.65 39.1077V20.2445H136.043L146.444 32.802H144.369V20.2445H149.597V39.1077H145.205L134.803 26.5502H136.878V39.1077H131.65Z" fill="#F53865"/>
<path d="M105.18 21.8017C105.18 23.0617 104.158 24.0832 102.898 24.0832C101.638 24.0832 100.348 23.1437 100.08 21.8017C100.348 20.5938 101.638 19.5201 102.898 19.5201C104.158 19.5201 105.18 20.5416 105.18 21.8017Z" fill="#363636"/>
<path d="M94.9802 21.8017C94.9802 23.0617 96.0017 24.0832 97.2617 24.0832C98.5218 24.0832 99.8117 23.1437 100.08 21.8017C99.8117 20.5938 98.5218 19.5201 97.2617 19.5201C96.0017 19.5201 94.9802 20.5416 94.9802 21.8017Z" fill="#F53865"/>
<rect x="104.854" y="21.83" width="8.9576" height="8.76628" rx="4.38314" transform="rotate(42.3582 104.854 21.83)" fill="#363636"/>
<rect width="8.9576" height="8.76628" rx="4.38314" transform="matrix(-0.738947 0.673764 0.673764 0.738947 95.2812 21.83)" fill="#F53865"/>
<path d="M101.8 25.1852L108.231 31.3946L100.075 39.5611L100.075 26.9416L101.8 25.1852Z" fill="#363636"/>
<path d="M98.336 25.1852L91.9052 31.3946L100.075 39.5611L100.075 26.9416L98.336 25.1852Z" fill="#F53865"/>
<path d="M154.37 27.5472H163.128V31.5355H154.37V27.5472ZM154.747 34.9847H164.61V39.1077H149.465V20.2445H164.26V24.3675H154.747V34.9847ZM178.053 39.4849C176.562 39.4849 175.179 39.2514 173.903 38.7843C172.646 38.2992 171.55 37.6166 170.616 36.7363C169.7 35.856 168.981 34.823 168.46 33.6373C167.939 32.4337 167.678 31.1133 167.678 29.6761C167.678 28.2389 167.939 26.9275 168.46 25.7418C168.981 24.5381 169.7 23.4962 170.616 22.6159C171.55 21.7356 172.646 21.0619 173.903 20.5948C175.179 20.1098 176.562 19.8672 178.053 19.8672C179.796 19.8672 181.35 20.1726 182.715 20.7835C184.098 21.3943 185.248 22.2745 186.164 23.4243L182.769 26.4963C182.158 25.7777 181.485 25.2298 180.748 24.8525C180.029 24.4752 179.221 24.2866 178.323 24.2866C177.55 24.2866 176.841 24.4124 176.194 24.6639C175.547 24.9154 174.99 25.2837 174.523 25.7687C174.074 26.2358 173.715 26.8017 173.445 27.4664C173.194 28.1311 173.068 28.8677 173.068 29.6761C173.068 30.4845 173.194 31.2211 173.445 31.8858C173.715 32.5505 174.074 33.1253 174.523 33.6104C174.99 34.0775 175.547 34.4368 176.194 34.6883C176.841 34.9398 177.55 35.0656 178.323 35.0656C179.221 35.0656 180.029 34.8769 180.748 34.4997C181.485 34.1224 182.158 33.5745 182.769 32.8559L186.164 35.9279C185.248 37.0597 184.098 37.9399 182.715 38.5687C181.35 39.1795 179.796 39.4849 178.053 39.4849ZM193.478 39.1077V24.4752H187.685V20.2445H204.581V24.4752H198.814V39.1077H193.478ZM204.436 39.1077L212.762 20.2445H218.017L226.371 39.1077H220.82L214.298 22.8584H216.4L209.879 39.1077H204.436ZM208.99 35.4428L210.364 31.5085H219.58L220.954 35.4428H208.99Z" fill="#363636"/>
</svg>
